<svg xmlns="http://www.w3.org/2000/svg" xmlns:xlink="http://www.w3.org/1999/xlink" width="74" zoomAndPan="magnify" viewBox="0 0 55.5 55.499996" height="74" preserveAspectRatio="xMidYMid meet" version="1.2"><defs><clipPath id="891454d8d4"><path d="M 0 6 L 53.519531 6 L 53.519531 52 L 0 52 Z M 0 6 "/></clipPath></defs><g id="669cef8f63"><g clip-rule="nonzero" clip-path="url(#891454d8d4)"><path style=" stroke:none;fill-rule:nonzero;fill:#a6a6a6;fill-opacity:1;" d="M 53.515625 21.695312 C 53.515625 13.234375 47.085938 6.347656 39.179688 6.347656 L 19.53125 6.347656 L 22.367188 10.132812 L 39.179688 10.132812 C 45.140625 10.132812 49.984375 15.324219 49.984375 21.695312 C 49.984375 28.078125 45.140625 33.269531 39.179688 33.269531 L 35.734375 33.269531 L 16.117188 6.363281 L 11.480469 6.363281 L 11.480469 30.417969 L 15.015625 30.417969 L 15.015625 10.996094 L 31.25 33.269531 L 15.015625 33.269531 L 15.015625 33.265625 L 11.480469 33.265625 L 11.480469 33.269531 L 0 33.269531 L 0 37.050781 L 11.480469 37.050781 L 11.480469 51.433594 L 15.015625 51.433594 L 15.015625 37.050781 L 34.007812 37.050781 L 44.492188 51.433594 L 48.976562 51.433594 L 38.492188 37.050781 L 39.179688 37.050781 C 47.085938 37.050781 53.515625 30.160156 53.515625 21.695312 Z M 53.515625 21.695312 "/></g><path style=" stroke:none;fill-rule:nonzero;fill:#a6a6a6;fill-opacity:1;" d="M 11.480469 0.00390625 L 11.480469 0.152344 L 11.589844 0.152344 Z M 11.480469 0.00390625 "/></g></svg>